Patient4_TMGait_0pt7_02_right_23_EMG.mot
version=1
nRows=16
nColumns=33
inDegrees=no
endheader
time	1LAddLong	2LGlutMax	3LGlutMed	4LIliopsoas	5LSemiMemb	6LBicFemLong	7LRecFem	8LVastMed	9LVastLat	10LGasMed	11LTibAnt	12lTibPost	13LPeroneusLong	14LSol	15LExtDigLong	16LFlexDigLong	17RAddLong	18RGlutMax	19RGlutMed	20RIliopsoas	21RSemiMemb	22RBicFemLong	23RRecFem	24RVastMed	25RVastLat	26RGasMed	27RTibAnt	28RTibPost	29RPeroneusLong	30RSol	31RExtDigLong	32RFlexDigLong
26.783	0.003204	-0.090485	0.045776	0.011444	0.015564	-0.033722	0.02182	-0.001068	0.068512	-0.37201	-0.011292	-0.001831	-0.033875	-0.25787	0.067291	-0.009918	0.051117	-0.079498	-0.013733	0.38711	0.22018	0.040588	0.025787	-0.056763	0.016785	-0.007782	-0.13306	-0.004883	-0.02594	-0.092773	-0.005951	-0.014648
26.784	0.006714	-0.1091	0.019073	0.053558	0.008545	-0.010834	-0.010834	-0.008698	0.11795	0.046387	0.005951	-0.002441	0.006866	-0.21332	-0.005035	-0.01236	0.046692	-0.090942	-0.19516	0.20645	0.27679	0.032196	-0.005035	-0.04776	0.004425	-0.007935	-0.019989	-0.003815	-0.043335	-0.041504	-0.004272	-0.016937
26.785	0.013733	-0.12726	-0.03952	0.036011	0.012665	-0.016479	0.042877	-0.007782	0.07019	0.31281	0.026093	-0.005798	0.10056	-0.097961	-0.003815	-0.023804	-0.014496	-0.10239	-0.060577	0.067444	0.099335	0.007629	-0.024414	0.016937	0.009308	-0.001678	0.1947	-0.002899	0.007477	-0.002899	-0.005646	-0.017548
26.786	0.005035	-0.15472	-0.051727	0.023804	0.005646	0.025024	0.07019	-0.016327	0.10284	0.28717	0.034943	0.00824	-0.25757	-0.026245	-0.018311	0.006714	-0.009918	-0.083923	-0.1712	-0.031738	0.005035	0.001984	-0.014191	0.024872	0.012512	-0.004425	0.18707	-0.009613	-0.00824	-0.010834	-0.003815	-0.017242
26.787	0.007629	-0.15335	0.050201	0.000305	0.014648	0.16647	0.079193	-0.000153	0.090637	0.26672	0.028992	0.013733	0.32944	-0.046844	-0.053101	-0.012512	0.037384	-0.027618	0.58762	-0.19684	-0.11063	-0.001221	0.032806	-0.03006	0.006714	-0.007019	0.013123	-0.001831	-0.014801	-0.062256	-0.003204	-0.019531
26.788	0.008392	-0.084991	0.016327	0.016937	0.007172	0.19623	0.077057	-0.009308	0.085144	0.36224	-0.015411	0.017853	0.21698	0.016022	0.054474	-0.00473	0.012207	-0.055084	0.45654	-0.094147	0.24063	0.041962	0.042572	-0.058746	0.004425	-0.013885	-0.034485	-0.004272	-0.00946	-0.046997	-0.001984	-0.015259
26.789	0.005493	-0.065155	0.10468	0.018311	-0.00351	0.14023	0.093994	-0.007324	0.066376	0.040894	-0.001068	0.014801	-0.37094	0.087433	0.058441	-0.018463	-0.035248	-0.044403	0.28381	0.097198	0.38727	0.072937	0.027161	-0.030212	0.014191	-0.010376	-0.012817	-0.009918	-0.03006	-0.098419	-0.003662	-0.008698
26.79	0.002289	-0.039825	0.12909	0.007172	0.010681	0.13794	0.067444	-0.005646	0.09079	-0.11276	0.061035	0.006561	0.42984	0.056	0.006561	-0.021515	-0.032654	-0.084229	0.18921	0.1178	0.13046	0.069122	-0.005341	-0.059052	0.015564	-0.004272	0.024719	-0.003204	0.003204	-0.11429	-0.00885	-0.006409
26.791	0.007324	-0.047302	-0.021057	0.01709	0.027313	0.15762	0.1001	-0.006104	0.095367	-0.32013	0.015869	0.001678	1.0873	-0.084381	0.032654	0.015717	0.000153	-0.097961	0.10605	0.095673	-0.028992	0.028381	-0.03067	-0.061188	-0.007782	-0.000916	0.066833	-0.003204	-0.025482	-0.13794	-0.005493	-0.011597
26.792	0.003052	-0.086823	-0.071564	-0.014648	0.02243	0.20294	0.16052	0.004272	0.041351	-0.24689	-0.042267	-0.004425	0.37811	-0.15762	-0.014954	0.036774	0.028229	-0.11108	-0.10574	0.018921	-0.098114	0.034485	0.007629	-0.079041	-0.006409	0.019226	0.10819	-0.003052	-0.13855	-0.079956	-0.006866	-0.005035
26.793	0.009155	-0.023193	-0.054779	-0.011444	0.031281	0.03479	0.18326	0.006409	0.009766	-0.052338	-0.037842	-0.007324	-0.94009	0.006714	-0.081635	0.014038	-0.004578	-0.06546	0.028229	-0.027466	-0.23941	0.002747	0.059814	-0.039215	0.012207	0.021515	0.12177	-0.00412	-0.13443	-0.089264	-0.005798	-0.005646
26.794	0.007629	-0.02121	-0.017548	-0.000305	0.023956	0.027924	0.15198	0.003357	-0.007782	0.024719	0.003967	-0.002289	-0.97702	0.22751	-0.14282	0.004883	-0.045624	-0.038605	0.43747	-0.03418	-0.20035	0.010529	0.005798	0.003204	0.02655	0.006866	0.076599	-0.005035	-0.085449	-0.078735	-0.006714	-0.001373
26.795	0.017395	-0.062561	-0.11231	-0.010834	0.026703	-0.035858	0.087433	0.008392	-0.020752	-0.03006	-0.019531	-0.00061	-0.12604	0.44769	-0.096741	0.00473	-0.077057	-0.10727	0.24246	-0.025024	0.004578	-0.015564	0.024872	0.049591	0.032806	-0.007324	0.039215	-0.005493	0.028839	-0.018463	-0.006104	0.005798
26.796	0.010223	-0.028839	-0.090179	-0.003967	0.023804	-0.18433	0.082092	0.006104	-0.053711	0.12512	-0.020294	0.005646	0.19058	0.40726	0.017548	-0.000305	-0.048981	-0.093079	0.07019	-0.062256	0.14557	-0.077515	-0.000916	0.066681	0.018768	-0.009155	0.002747	-0.005341	0.10712	0.003357	-0.006714	-0.005798
26.797	0.015411	-0.031281	-0.059662	0.026245	0.024872	-0.15839	0.015106	0.002136	-0.090942	0.52917	0.007324	0.009155	0.003357	0.35446	0.042419	0.00351	-0.015106	-0.10513	0.16815	-0.045776	0.10391	-0.2002	0.020142	0.041656	0.030975	-0.009766	0.020447	-0.007019	0.038452	0.00473	-0.000916	-0.00061
26.798	0.019073	-0.062714	-0.054626	0.041046	0.026855	-0.056	-0.069427	0.001221	-0.00473	0.42496	0.019073	0.004272	-0.12543	0.17609	0.000916	0.002441	-0.000916	-0.13046	0.28763	-0.016632	0.073547	-0.22018	0.021057	0.001068	0.020447	-0.005341	0.046387	-0.002136	0.089111	-0.018768	-0.007324	-0.000763
